<svg xmlns="http://www.w3.org/2000/svg" xmlns:xlink="http://www.w3.org/1999/xlink" version="1.0" x="0" y="0" width="2400" height="2691.2289488549327" viewBox="139.4 90.68683471679688 61.2 68.62633819580078" preserveAspectRatio="xMidYMid meet" color-interpolation-filters="sRGB"><g><defs><linearGradient id="92" x1="0%" y1="0%" x2="100%" y2="0%"><stop offset="0%" stop-color="#fa71cd"></stop> <stop offset="100%" stop-color="#9b59b6"></stop></linearGradient><linearGradient id="93" x1="0%" y1="0%" x2="100%" y2="0%"><stop offset="0%" stop-color="#f9d423"></stop> <stop offset="100%" stop-color="#f83600"></stop></linearGradient><linearGradient id="94" x1="0%" y1="0%" x2="100%" y2="0%"><stop offset="0%" stop-color="#0064d2"></stop> <stop offset="100%" stop-color="#1cb0f6"></stop></linearGradient><linearGradient id="95" x1="0%" y1="0%" x2="100%" y2="0%"><stop offset="0%" stop-color="#f00978"></stop> <stop offset="100%" stop-color="#3f51b1"></stop></linearGradient><linearGradient id="96" x1="0%" y1="0%" x2="100%" y2="0%"><stop offset="0%" stop-color="#7873f5"></stop> <stop offset="100%" stop-color="#ec77ab"></stop></linearGradient><linearGradient id="97" x1="0%" y1="0%" x2="100%" y2="0%"><stop offset="0%" stop-color="#f9d423"></stop> <stop offset="100%" stop-color="#e14fad"></stop></linearGradient><linearGradient id="98" x1="0%" y1="0%" x2="100%" y2="0%"><stop offset="0%" stop-color="#009efd"></stop> <stop offset="100%" stop-color="#2af598"></stop></linearGradient><linearGradient id="99" x1="0%" y1="0%" x2="100%" y2="0%"><stop offset="0%" stop-color="#ffcc00"></stop> <stop offset="100%" stop-color="#00b140"></stop></linearGradient><linearGradient id="100" x1="0%" y1="0%" x2="100%" y2="0%"><stop offset="0%" stop-color="#d51007"></stop> <stop offset="100%" stop-color="#ff8177"></stop></linearGradient><linearGradient id="102" x1="0%" y1="0%" x2="100%" y2="0%"><stop offset="0%" stop-color="#a2b6df"></stop> <stop offset="100%" stop-color="#0c3483"></stop></linearGradient><linearGradient id="103" x1="0%" y1="0%" x2="100%" y2="0%"><stop offset="0%" stop-color="#7ac5d8"></stop> <stop offset="100%" stop-color="#eea2a2"></stop></linearGradient><linearGradient id="104" x1="0%" y1="0%" x2="100%" y2="0%"><stop offset="0%" stop-color="#00ecbc"></stop> <stop offset="100%" stop-color="#007adf"></stop></linearGradient><linearGradient id="105" x1="0%" y1="0%" x2="100%" y2="0%"><stop offset="0%" stop-color="#b88746"></stop> <stop offset="100%" stop-color="#fdf5a6"></stop></linearGradient></defs><g class="imagesvg isNoFont" transform="translate(140,91.28683090209961)"><g><rect fill="#444444" fill-opacity="0" stroke-width="2" x="0" y="0" width="60" height="67.42633672712562" class="image-rect"></rect> <svg x="0" y="0" width="60" height="67.42633672712562" filtersec="colorsb5424350404" class="image-svg-svg primary" style="overflow: visible;"><svg xmlns="http://www.w3.org/2000/svg" viewBox="-0.0000019073486328125 -0.00122833251953125 257.7980041503906 289.70562744140625"><defs><linearGradient id="a4a613848-a113-4429-8c35-ca9ad1a80c46" x1="176.32" y1="111.4" x2="12.32" y2="51.4" gradientUnits="userSpaceOnUse"><stop offset="0" stop-color="#e4007f"></stop><stop offset="1" stop-color="#007eca"></stop></linearGradient><linearGradient id="bc1fb899d-9258-4ed9-a083-622301e74a1e" x1="182.85" y1="93.56" x2="18.85" y2="33.56" gradientUnits="userSpaceOnUse"><stop offset="0" stop-color="#e4007f"></stop><stop offset="1" stop-color="#007eca"></stop></linearGradient><linearGradient id="c203ccf67-5004-428a-b966-e93dab2dd684" x1="185.27" y1="86.94" x2="21.27" y2="26.94" gradientUnits="userSpaceOnUse"><stop offset="0" stop-color="#e4007f"></stop><stop offset="1" stop-color="#007eca"></stop></linearGradient><linearGradient id="d5e757e44-c430-4230-9549-dfc3122f1cdc" x1="183.35" y1="92.2" x2="19.35" y2="32.2" gradientUnits="userSpaceOnUse"><stop offset="0" stop-color="#e4007f"></stop><stop offset="1" stop-color="#007eca"></stop></linearGradient><linearGradient id="e9beaacd1-72a6-4050-8bc9-6cdd8058e362" x1="166.87" y1="137.23" x2="2.87" y2="77.23" gradientUnits="userSpaceOnUse"><stop offset="0" stop-color="#e4007f"></stop><stop offset="1" stop-color="#007eca"></stop></linearGradient><linearGradient id="fe7bb6ce7-49b7-4e66-b20a-fae3e4af773c" x1="148.35" y1="187.85" x2="-15.65" y2="127.85" gradientUnits="userSpaceOnUse"><stop offset="0" stop-color="#e4007f"></stop><stop offset="1" stop-color="#007eca"></stop></linearGradient><linearGradient id="ge426d972-ffc1-4ccd-abda-852408a22e31" x1="125.64" y1="249.94" x2="-38.36" y2="189.94" gradientUnits="userSpaceOnUse"><stop offset="0" stop-color="#e4007f"></stop><stop offset="1" stop-color="#007eca"></stop></linearGradient><linearGradient id="hdad0af5c-1447-48a6-b86a-700d345e493f" x1="124.68" y1="252.56" x2="-39.32" y2="192.56" gradientUnits="userSpaceOnUse"><stop offset="0" stop-color="#e4007f"></stop><stop offset="1" stop-color="#007eca"></stop></linearGradient><linearGradient id="i97bd9c0c-3647-4d53-8ead-e9806d96ebbc" x1="140.67" y1="208.83" x2="-23.33" y2="148.83" gradientUnits="userSpaceOnUse"><stop offset="0" stop-color="#e4007f"></stop><stop offset="1" stop-color="#007eca"></stop></linearGradient><linearGradient id="jdb3d3882-f643-4040-8b78-f98e0faef6c4" x1="155.31" y1="168.82" x2="-8.69" y2="108.82" gradientUnits="userSpaceOnUse"><stop offset="0" stop-color="#e4007f"></stop><stop offset="1" stop-color="#007eca"></stop></linearGradient></defs><g><g fill-rule="evenodd"><path d="M164.79 79.72l69.38 40.19c27.8 16 31.21 28.05 9.48 43.6-43.22-15.92-90.23-34.62-95.54-37-45.49-19.59-33.49-30.58.25-41.2 4.55-1.39 10.36-3.41 16.43-5.56z" fill="url(#a4a613848-a113-4429-8c35-ca9ad1a80c46)"></path><path d="M111.58 49l27 15.67 20.52 11.89c-5.56 1.39-10.87 2.91-15.29 3.92C119 86.41 86.06 93 106.4 57.85c.89-1.64 2.78-4.93 5.18-8.85z" fill="url(#bc1fb899d-9258-4ed9-a083-622301e74a1e)"></path><path d="M58.13 18.17L107.92 47c-2.53 4-4.68 7.33-5.81 9-22.87 32.48-32.22 7.45-39.68-20.6-1.52-5.69-2.91-11.37-4.3-17.19z" fill="url(#c203ccf67-5004-428a-b966-e93dab2dd684)"></path><path d="M0 43.32v-8.84C0-2.43 11.5-8.62 45.11 10.72l9 5.18C55.48 22.47 57 29 58.26 35.74c5.81 29.7 7.07 54.26-28.94 30.58-4-2.91-18.58-14.41-29.32-23z" fill="url(#d5e757e44-c430-4230-9549-dfc3122f1cdc)"></path><path d="M0 103.22V49.14c9.1 8.21 19.84 17.94 23 20.72 30.58 26.92 10.62 30.58-10.24 32.35-4.17.38-8.47.76-12.76 1z" fill="url(#e9beaacd1-72a6-4050-8bc9-6cdd8058e362)"></path><path d="M0 165.52v-56.23l13.27.38c33 1.26 29.82 17.44 3.16 41.7-2 2-8.21 7.33-16.43 14.15z" fill="url(#fe7bb6ce7-49b7-4e66-b20a-fae3e4af773c)"></path><path d="M9.35 287.6C2.78 283.31 0 271.93 0 252.85v-80.12c9.6-7.46 17.06-13.27 19.46-15.16C72.41 116 51.81 166.28 41.2 197c-4.2 13.13-23 65.71-31.85 90.6z" fill="url(#ge426d972-ffc1-4ccd-abda-852408a22e31)"></path><path d="M102.23 245.9l-59 34C29.57 287.73 19.84 291 13 289.24c9-24.39 28.81-76.46 33.36-89.09C65 148.46 79 138.48 91.11 192.82c1.39 5.81 6.19 29.45 11.12 53.08z" fill="url(#hdad0af5c-1447-48a6-b86a-700d345e493f)"></path><path d="M165.8 209.12l-27.17 15.67-31.85 18.45c-4.29-23.25-8.47-46.13-9.48-51.94-11.75-70 15.16-40.19 42.46-11 6.7 7 16.93 18.58 26 28.81z" fill="url(#i97bd9c0c-3647-4d53-8ead-e9806d96ebbc)"></path><path d="M232.27 170.83l-63.19 36.4c-9.6-10.74-20.34-23.38-27-31.21-26.41-30.58-45.62-61 5.69-42.59 4.93 1.64 49.79 17.82 91.87 32.86-2.28 1.52-4.68 3-7.33 4.55z" fill="url(#jdb3d3882-f643-4040-8b78-f98e0faef6c4)"></path></g></g></svg></svg> </g></g><defs v-gra="od"></defs></g></svg>